<mxfile host="app.diagrams.net" modified="2023-06-20T08:41:55.639Z" agent="Mozilla/5.0 (Windows NT 10.0; Win64; x64) AppleWebKit/537.36 (KHTML, like Gecko) Chrome/114.0.0.0 Safari/537.36" etag="skt77AncrKJjfGfs1TFR" version="21.3.8" type="github">
  <diagram name="第 1 页" id="28bPy1tq9W5GnU0p37F3">
    <mxGraphModel dx="1434" dy="740" grid="1" gridSize="10" guides="1" tooltips="1" connect="1" arrows="1" fold="1" page="1" pageScale="1" pageWidth="827" pageHeight="1169" math="0" shadow="0">
      <root>
        <mxCell id="0" />
        <mxCell id="1" parent="0" />
        <mxCell id="zu7UrKQGvJVnN1ZlUpZt-17" style="edgeStyle=orthogonalEdgeStyle;rounded=0;orthogonalLoop=1;jettySize=auto;html=1;entryX=0.5;entryY=0;entryDx=0;entryDy=0;" edge="1" parent="1" source="zu7UrKQGvJVnN1ZlUpZt-8" target="zu7UrKQGvJVnN1ZlUpZt-14">
          <mxGeometry relative="1" as="geometry">
            <Array as="points">
              <mxPoint x="185" y="455" />
              <mxPoint x="180" y="455" />
              <mxPoint x="180" y="500" />
            </Array>
          </mxGeometry>
        </mxCell>
        <mxCell id="zu7UrKQGvJVnN1ZlUpZt-8" value="" style="ellipse;html=1;shape=endState;fillColor=#000000;strokeColor=#ff0000;" vertex="1" parent="1">
          <mxGeometry x="169" y="380" width="30" height="30" as="geometry" />
        </mxCell>
        <mxCell id="zu7UrKQGvJVnN1ZlUpZt-9" value="Activity" style="rounded=1;whiteSpace=wrap;html=1;arcSize=40;fontColor=#000000;fillColor=#ffffc0;strokeColor=#ff0000;" vertex="1" parent="1">
          <mxGeometry x="124" y="280" width="120" height="40" as="geometry" />
        </mxCell>
        <mxCell id="zu7UrKQGvJVnN1ZlUpZt-10" value="" style="edgeStyle=orthogonalEdgeStyle;html=1;verticalAlign=bottom;endArrow=open;endSize=8;strokeColor=#ff0000;rounded=0;" edge="1" source="zu7UrKQGvJVnN1ZlUpZt-9" parent="1">
          <mxGeometry relative="1" as="geometry">
            <mxPoint x="184" y="380" as="targetPoint" />
          </mxGeometry>
        </mxCell>
        <mxCell id="zu7UrKQGvJVnN1ZlUpZt-11" value="Activity" style="rounded=1;whiteSpace=wrap;html=1;arcSize=40;fontColor=#000000;fillColor=#ffffc0;strokeColor=#ff0000;" vertex="1" parent="1">
          <mxGeometry x="294" y="280" width="120" height="40" as="geometry" />
        </mxCell>
        <mxCell id="zu7UrKQGvJVnN1ZlUpZt-12" value="" style="edgeStyle=orthogonalEdgeStyle;html=1;verticalAlign=bottom;endArrow=open;endSize=8;strokeColor=#ff0000;rounded=0;" edge="1" source="zu7UrKQGvJVnN1ZlUpZt-11" parent="1">
          <mxGeometry relative="1" as="geometry">
            <mxPoint x="354" y="380" as="targetPoint" />
          </mxGeometry>
        </mxCell>
        <mxCell id="zu7UrKQGvJVnN1ZlUpZt-13" value="" style="ellipse;html=1;shape=endState;fillColor=#000000;strokeColor=#ff0000;" vertex="1" parent="1">
          <mxGeometry x="340" y="380" width="30" height="30" as="geometry" />
        </mxCell>
        <mxCell id="zu7UrKQGvJVnN1ZlUpZt-14" value="Condition" style="rhombus;whiteSpace=wrap;html=1;fontColor=#000000;fillColor=#ffffc0;strokeColor=#ff0000;" vertex="1" parent="1">
          <mxGeometry x="140" y="500" width="80" height="40" as="geometry" />
        </mxCell>
        <mxCell id="zu7UrKQGvJVnN1ZlUpZt-15" value="no" style="edgeStyle=orthogonalEdgeStyle;html=1;align=left;verticalAlign=bottom;endArrow=open;endSize=8;strokeColor=#ff0000;rounded=0;" edge="1" source="zu7UrKQGvJVnN1ZlUpZt-14" parent="1">
          <mxGeometry x="-1" relative="1" as="geometry">
            <mxPoint x="370" y="490" as="targetPoint" />
          </mxGeometry>
        </mxCell>
        <mxCell id="zu7UrKQGvJVnN1ZlUpZt-16" value="yes" style="edgeStyle=orthogonalEdgeStyle;html=1;align=left;verticalAlign=top;endArrow=open;endSize=8;strokeColor=#ff0000;rounded=0;" edge="1" source="zu7UrKQGvJVnN1ZlUpZt-14" parent="1">
          <mxGeometry x="-1" relative="1" as="geometry">
            <mxPoint x="230" y="570" as="targetPoint" />
          </mxGeometry>
        </mxCell>
      </root>
    </mxGraphModel>
  </diagram>
</mxfile>
